# Blender v2.81 (sub 16) OBJ File: ''
# www.blender.org
mtllib cubeLow.mtl
o Sphere
v -0.108905 0.968311 -0.257940
v -0.097068 0.378932 -0.925380
v 0.110400 0.829481 -0.555024
v 0.098295 0.098969 -0.998027
v 0.096849 -0.180741 -0.983340
v 0.087872 -0.461874 -0.892157
v -0.011342 -0.889079 -0.474686
v 0.230140 0.638967 -0.744335
v 0.259857 0.391797 -0.886114
v 0.210324 -0.706054 -0.680304
v 0.434324 0.637827 -0.643466
v 0.449913 0.294196 -0.850912
v 0.474291 0.000000 -0.887336
v 0.454393 -0.292875 -0.850110
v 0.623740 0.196749 -0.760029
v 0.406511 -0.639556 -0.668488
v 0.215369 0.926968 -0.326631
v 0.604885 0.638968 -0.491033
v 0.755734 0.309155 -0.591811
v 0.766101 -0.082155 -0.649784
v 0.683308 -0.468326 -0.573807
v 0.347961 -0.834889 -0.442263
v 0.423958 0.840774 -0.355454
v 0.868253 -0.197140 -0.465214
v 0.269638 -0.926351 -0.282765
v 0.092851 -0.999462 -0.076201
v 0.692733 0.712804 -0.155800
v 0.882076 0.385203 -0.284560
v 0.962005 0.107599 -0.283089
v 0.845779 -0.481431 -0.266522
v 0.582892 -0.777587 -0.269687
v 0.171825 0.984597 -0.107279
v 0.823623 0.564093 -0.142630
v 0.997131 -0.099452 -0.096756
v 0.457054 0.897015 -0.047259
v 0.960782 0.293134 0.096353
v 0.976738 -0.204561 0.105851
v 0.885356 -0.475433 0.084310
v 0.704242 -0.717473 0.007740
v 0.963383 0.008210 0.281462
v 0.542794 -0.836769 0.116519
v 0.718911 0.656402 0.269805
v 0.850774 0.293134 0.456694
v 0.882839 -0.099452 0.473526
v 0.819276 -0.391921 0.429269
v 0.685979 -0.638319 0.366664
v 0.382814 -0.927608 0.064325
v 0.490639 0.840774 0.255660
v 0.654910 0.497100 0.580100
v 0.750115 -0.196721 0.637944
v 0.597311 -0.378983 0.711338
v 0.447006 0.709304 0.549410
v 0.644627 0.071222 0.771333
v 0.520163 -0.649995 0.566003
v 0.192247 -0.925603 0.336508
v 0.177152 0.838086 0.529777
v 0.429476 0.468325 0.782123
v 0.448886 0.196721 0.876440
v 0.454635 -0.204561 0.870935
v 0.383064 -0.497100 0.786566
v 0.346466 -0.840774 0.431335
v 0.254233 0.931025 0.290998
v 0.198657 0.711736 0.677653
v 0.079318 0.196721 0.981506
v 0.291662 -0.000000 0.961481
v 0.217550 -0.708715 0.674359
v 0.096398 0.481430 0.881524
v 0.097535 -0.197140 0.980191
v 0.090034 -0.475433 0.884793
v -0.088107 0.008211 0.999783
v 0.010246 -0.831849 0.561229
v 0.121586 -0.986421 0.158002
v -0.211558 0.727273 0.668962
v -0.255895 0.557974 0.793221
v -0.244441 0.318416 0.923172
v -0.236380 -0.308531 0.929701
v -0.255895 -0.557974 0.793221
v -0.121157 -0.712804 0.699624
v -0.111155 0.924887 0.374306
v -0.471574 0.204561 0.861881
v -0.481043 -0.091051 0.883627
v -0.490455 -0.473966 0.737781
v 0.064380 0.999213 0.104891
v -0.249343 0.838086 0.499874
v -0.561979 0.475432 0.689307
v -0.359048 -0.789658 0.514066
v -0.148680 -0.928309 0.358945
v -0.545602 0.709304 0.451646
v -0.735458 0.473966 0.493932
v -0.767425 0.189027 0.621112
v -0.780443 -0.107597 0.629684
v -0.683308 -0.468324 0.573808
v -0.698170 -0.638423 0.342898
v -0.426744 -0.898850 0.167798
v -0.358838 0.929162 0.139609
v -0.510529 0.834055 0.226505
v -0.750535 0.638667 0.209638
v -0.882076 0.385202 0.284560
v -0.962005 0.107598 0.283090
v -0.924802 -0.285629 0.287997
v -0.883051 0.480538 0.010555
v -0.999900 0.098554 0.000343
v -0.873284 -0.497099 0.052899
v -0.692220 -0.717473 0.129800
v -0.558347 -0.834055 0.013893
v -0.171825 0.984597 0.107280
v -0.703843 0.708715 -0.081809
v -0.990217 -0.126587 -0.131853
v -0.891512 -0.385202 -0.253452
v -0.179074 -0.983075 0.095717
v -0.851896 0.475431 -0.255415
v -0.937146 0.196721 -0.302326
v -0.740516 -0.638667 -0.242667
v -0.540521 0.835869 -0.159467
v -0.886244 -0.099050 -0.473058
v -0.693965 -0.491475 -0.542277
v -0.589270 0.712212 -0.393738
v -0.689307 0.475431 -0.561979
v -0.746030 0.115626 -0.667863
v -0.524033 -0.784959 -0.357588
v -0.298937 -0.929969 -0.245331
v -0.318094 0.928498 -0.216398
v -0.386347 0.656279 -0.656919
v -0.616475 -0.300874 -0.738858
v -0.490251 0.308532 -0.824542
v -0.464000 -0.008211 -0.889961
v -0.374470 -0.660982 -0.660205
v -0.313886 -0.834685 -0.461155
v -0.101483 -0.983237 -0.176704
v -0.258618 0.844351 -0.483837
v -0.054208 0.649994 -0.768488
v -0.233882 0.562791 -0.795973
v -0.275990 0.204561 -0.942894
v -0.259574 -0.112815 -0.969007
v -0.260919 -0.475432 -0.850226
v -0.072410 -0.709304 -0.704571
vt 0.734375 0.348939
vt 0.702271 0.250000
vt 0.766302 0.250000
vt 0.817453 0.912722
vt 0.734375 1.000000
vt 0.589220 0.937500
vt 0.704602 0.625000
vt 0.759893 0.725021
vt 0.702544 0.718280
vt 0.718600 0.812500
vt 0.643959 0.187500
vt 0.752066 0.155949
vt 0.671930 0.593640
vt 0.734375 0.533997
vt 0.657293 0.875000
vt 0.610999 0.812500
vt 0.609239 0.716797
vt 0.656250 0.718927
vt 0.671875 0.500000
vt 0.640625 0.562500
vt 0.613838 0.477896
vt 0.671875 0.409378
vt 0.610005 0.346011
vt 0.564441 0.221968
vt 0.658774 0.286298
vt 0.535174 0.750000
vt 0.527269 0.687500
vt 0.603884 0.599537
vt 0.549679 0.625000
vt 0.546180 0.532847
vt 0.516713 0.849926
vt 0.578286 0.437500
vt 0.547535 0.343092
vt 0.515610 0.468779
vt 0.498258 0.250000
vt 0.473402 0.125000
vt 0.628651 0.125000
vt 0.466393 0.187500
vt 0.484345 0.593425
vt 0.648550 0.036605
vt 0.354205 0.062500
vt 0.454769 0.500000
vt 0.443200 0.726295
vt 0.421845 0.593425
vt 0.421860 0.468779
vt 0.482814 0.437500
vt 0.484414 0.344178
vt 0.423190 0.375000
vt 0.422131 0.281898
vt 0.357638 0.187500
vt 0.332678 0.125000
vt 0.383271 0.665313
vt 0.362214 0.520418
vt 0.387818 0.437500
vt 0.361180 0.375000
vt 0.423499 0.812500
vt 0.358698 0.750000
vt 0.364045 0.875000
vt 0.301311 0.812500
vt 0.367662 0.276737
vt 0.320771 0.334687
vt 0.328755 0.653989
vt 0.326564 0.437500
vt 0.325318 0.562500
vt 0.296875 0.500000
vt 0.295385 0.750000
vt 0.299676 0.250000
vt 0.266285 0.656908
vt 0.252840 0.187500
vt 0.265786 0.437500
vt 0.262818 0.562500
vt 0.236019 0.500000
vt 0.384376 0.962469
vt 0.204076 0.875000
vt 0.201338 0.750000
vt 0.265664 0.344178
vt 0.222730 0.250000
vt 0.187361 0.125000
vt 0.200323 0.687500
vt 0.211155 0.400476
vt 0.176311 0.812500
vt 0.200323 0.312500
vt 0.203125 0.000000
vt 0.081405 0.062500
vt 0.152656 0.213524
vt 0.140665 0.655822
vt 0.210345 0.603472
vt 0.171188 0.472498
vt 0.156250 0.343629
vt 0.092591 0.937500
vt 0.059153 0.875000
vt 0.110052 0.750000
vt 0.170314 0.562500
vt 0.108282 0.562500
vt 0.066534 0.812500
vt 0.110005 0.346012
vt 0.076336 0.284828
vt 0.093750 0.656371
vt 0.108670 0.467486
vt 0.047645 0.407626
vt 0.045523 0.719815
vt 0.046180 0.532847
vt 0.008271 0.334687
vt 0.029508 0.250000
vt 0.012557 0.187500
vt 0.057455 0.149472
vt 0.000000 0.812500
vt 0.000000 0.658651
vt 0.049680 0.625000
vt 1.000000 0.125000
vt 0.985536 0.187500
vt 0.890670 0.125000
vt 1.000000 0.875000
vt 0.984375 0.937500
vt 0.904889 0.875000
vt 0.977641 0.460487
vt 0.955929 0.375000
vt 1.000000 0.334687
vt 0.952020 0.282012
vt 1.000000 0.250000
vt 1.000000 0.658651
vt 0.981574 0.750000
vt 0.953164 0.655822
vt 0.954367 0.812500
vt 0.906295 0.750000
vt 0.908360 0.218118
vt 0.833439 0.062500
vt 0.986986 0.062500
vt 0.950318 0.562500
vt 0.922041 0.466255
vt 0.953125 1.000000
vt 0.953125 0.000000
vt 0.895113 0.337227
vt 0.890665 0.655822
vt 0.883031 0.535689
vt 0.860089 0.404927
vt 0.828251 0.812500
vt 0.836155 0.599525
vt 0.826481 0.500000
vt 0.834433 0.271304
vt 0.835654 0.726961
vt 0.790511 0.463332
vt 0.796915 0.344178
vt 0.795485 0.687500
vt 0.766643 0.625000
vt 0.845048 0.187500
vt 0.795314 0.562500
vt 0.734375 0.437500
vt 0.000000 0.750000
vt 0.000000 0.437500
vt 0.000000 0.531273
vt 1.000000 0.531273
vn 0.0735 -0.6323 -0.7712
vn -0.0165 0.9969 -0.0770
vn 0.0925 0.5038 -0.8589
vn 0.0860 0.7289 -0.6792
vn 0.1729 -0.8209 -0.5443
vn 0.2789 0.2047 -0.9382
vn 0.2769 0.8312 -0.4821
vn 0.4461 0.7391 -0.5047
vn 0.6343 0.0183 -0.7729
vn 0.6009 -0.1408 -0.7868
vn 0.5742 -0.6612 -0.4828
vn 0.7242 0.6088 -0.3239
vn 0.8725 0.2490 -0.4204
vn 0.8558 0.0979 -0.5079
vn 0.3231 0.9291 -0.1799
vn 0.8126 -0.3757 -0.4456
vn 0.5897 0.7424 -0.3180
vn 0.9469 -0.1110 -0.3018
vn 0.7365 -0.6518 -0.1809
vn 0.4294 -0.8917 -0.1433
vn 0.5630 -0.8237 -0.0678
vn 0.9202 0.3789 -0.0986
vn 0.2285 -0.9732 0.0262
vn 0.9958 0.0564 0.0728
vn 0.8563 0.4453 0.2614
vn 0.9390 -0.1819 0.2918
vn 0.8130 -0.5108 0.2794
vn 0.7605 -0.6249 0.1765
vn 0.5294 -0.7856 0.3202
vn 0.8989 0.0918 0.4284
vn 0.3452 -0.9051 0.2483
vn 0.7021 0.2775 0.6557
vn 0.8024 0.0908 0.5898
vn 0.7219 -0.3696 0.5850
vn 0.5587 0.7229 0.4065
vn 0.3770 0.8155 0.4391
vn 0.5222 -0.5137 0.6807
vn 0.5000 0.5825 0.6409
vn 0.6151 -0.1438 0.7752
vn 0.4740 0.0018 0.8805
vn 0.4760 -0.3492 0.8072
vn 0.3122 0.7442 0.5905
vn 0.3657 -0.6429 0.6730
vn 0.2546 0.5751 0.7774
vn 0.1886 -0.8175 0.5442
vn 0.2836 -0.1901 0.9399
vn 0.1005 0.0072 0.9949
vn 0.0516 0.9536 0.2967
vn 0.0151 0.7613 0.6483
vn 0.0644 -0.6488 0.7582
vn 0.0341 -0.9122 0.4082
vn -0.0686 0.6019 0.7956
vn -0.0899 -0.1748 0.9805
vn -0.0352 -0.3232 0.9457
vn -0.0378 0.8410 0.5397
vn -0.1196 -0.4693 0.8749
vn -0.0232 -0.9980 0.0584
vn -0.1638 -0.8194 0.5493
vn -0.0542 -0.9763 0.2094
vn -0.3973 0.6083 0.6871
vn -0.3916 0.4242 0.8165
vn -0.4355 -0.3110 0.8447
vn -0.2323 0.9366 0.2622
vn -0.4049 0.7207 0.5628
vn -0.6168 0.2661 0.7408
vn -0.3586 0.8733 0.3298
vn -0.5525 -0.6537 0.5171
vn -0.6078 0.5865 0.5353
vn -0.8145 -0.2966 0.4986
vn -0.8021 -0.4550 0.3868
vn -0.6137 0.7273 0.3074
vn -0.8709 0.0523 0.4887
vn -0.8301 -0.4926 0.2612
vn -0.5723 -0.8062 0.1499
vn -0.5125 0.8575 0.0439
vn -0.8518 0.4938 0.1748
vn -0.3916 -0.9187 -0.0519
vn -0.2896 0.9565 -0.0349
vn -0.9420 -0.3293 -0.0642
vn -0.8485 -0.5113 -0.1363
vn -0.7658 -0.6420 -0.0365
vn -0.8023 0.5875 -0.1053
vn -0.6644 0.7092 -0.2361
vn -0.6093 -0.7768 -0.1590
vn -0.2380 -0.9689 -0.0672
vn -0.9566 0.0035 -0.2912
vn -0.0622 0.9965 -0.0552
vn -0.0728 -0.9971 -0.0202
vn -0.8316 -0.3284 -0.4479
vn -0.7216 0.5768 -0.3827
vn -0.7402 -0.1174 -0.6621
vn -0.7715 -0.2770 -0.5727
vn -0.4355 0.8264 -0.3569
vn -0.5819 0.1180 -0.8047
vn -0.5209 -0.5010 -0.6911
vn -0.4354 0.7516 -0.4954
vn -0.5416 -0.6495 -0.5337
vn -0.4463 -0.2159 -0.8685
vn -0.2036 0.7343 -0.6476
vn -0.2107 -0.6335 -0.7445
vn -0.2939 0.3942 -0.8708
vn -0.1799 -0.9044 -0.3868
vn -0.3331 0.0602 -0.9410
vn -0.0902 0.1907 -0.9775
vn -0.0517 0.8896 -0.4539
vn 0.0626 -0.7780 -0.6251
vn 0.0660 -0.9571 -0.2822
vn 0.0929 0.3103 -0.9461
vn 0.0726 0.9681 -0.2399
vn 0.0309 0.9141 -0.4044
vn 0.3131 -0.4743 -0.8228
vn 0.2391 -0.5651 -0.7896
vn 0.1724 -0.8887 -0.4249
vn 0.2694 -0.0519 -0.9616
vn 0.3138 0.1422 -0.9388
vn 0.3150 0.7811 -0.5391
vn 0.2466 -0.3061 -0.9195
vn 0.5219 0.1473 -0.8402
vn 0.3948 0.4879 -0.7785
vn 0.2925 -0.7599 -0.5804
vn 0.5865 0.4698 -0.6598
vn 0.7617 0.5368 -0.3629
vn 0.5869 0.3804 -0.7147
vn 0.6453 -0.2783 -0.7114
vn 0.5256 -0.4506 -0.7216
vn 0.7416 0.1175 -0.6604
vn 0.7562 -0.2786 -0.5921
vn 0.5222 -0.7077 -0.4759
vn 0.6904 -0.6087 -0.3910
vn 0.9470 -0.3141 -0.0676
vn 0.4207 -0.8606 -0.2869
vn 0.8787 0.0148 -0.4771
vn 0.3496 0.9143 -0.2044
vn 0.9319 -0.2544 -0.2585
vn 0.5416 0.8148 -0.2068
vn 0.2829 -0.9544 -0.0957
vn 0.5114 -0.8558 -0.0780
vn 0.9529 0.2737 -0.1307
vn 0.9914 0.1188 -0.0549
vn 0.6246 0.7783 0.0647
vn 0.8102 -0.5805 -0.0815
vn 0.9956 -0.0142 0.0929
vn 0.2735 0.9591 0.0724
vn 0.7482 0.6622 0.0417
vn 0.8495 0.5180 0.0997
vn 0.6639 -0.7224 0.1931
vn 0.9381 0.1946 0.2864
vn 0.9199 -0.2461 0.3053
vn 0.6746 -0.4887 0.5533
vn 0.3705 0.9197 0.1297
vn 0.8206 -0.2557 0.5111
vn 0.7690 0.4902 0.4103
vn 0.4158 -0.8749 0.2482
vn 0.2847 -0.9362 0.2062
vn 0.7795 -0.0049 0.6264
vn 0.6159 0.2974 0.7296
vn 0.6002 0.6545 0.4598
vn 0.5251 -0.7551 0.3925
vn 0.3645 0.8286 0.4250
vn 0.2817 0.3327 0.9000
vn 0.6097 -0.2025 0.7664
vn 0.4758 -0.0102 0.8795
vn 0.3595 0.6346 0.6842
vn 0.3511 -0.7319 0.5840
vn 0.2185 -0.5850 0.7810
vn 0.1674 -0.8543 0.4920
vn 0.2713 -0.3187 0.9082
vn 0.2683 0.1935 0.9437
vn -0.3010 0.0795 0.9503
vn 0.0281 -0.9495 0.3124
vn 0.1003 -0.0043 0.9950
vn 0.0716 0.9215 0.3818
vn 0.0091 0.6605 0.7507
vn 0.0597 -0.7280 0.6829
vn -0.0388 0.8318 0.5538
vn -0.0818 -0.5668 0.8198
vn -0.1174 0.4692 0.8753
vn -0.0444 0.3334 0.9417
vn -0.1052 0.1881 0.9765
vn -0.0578 0.9714 0.2303
vn -0.3856 -0.6349 0.6695
vn -0.2613 -0.0903 0.9610
vn -0.1625 -0.8349 0.5258
vn -0.6264 -0.2813 0.7270
vn -0.4157 0.3860 0.8236
vn -0.3503 -0.4283 0.8330
vn -0.6318 0.0770 0.7713
vn -0.2828 0.9060 0.3150
vn -0.5147 -0.6279 0.5838
vn -0.4359 0.6563 0.6158
vn -0.8366 0.2988 0.4592
vn -0.5226 -0.7785 0.3477
vn -0.3283 -0.8805 0.3419
vn -0.7004 0.3550 0.6192
vn -0.2544 -0.9406 0.2251
vn -0.4198 0.8200 0.3890
vn -0.6792 0.6189 0.3945
vn -0.5691 -0.7760 0.2720
vn -0.7910 0.5103 0.3376
vn -0.5986 0.7995 0.0503
vn -0.9026 -0.0801 0.4231
vn -0.7901 -0.5816 0.1937
vn -0.9587 -0.2812 0.0429
vn -0.9519 0.2884 0.1037
vn -0.7813 0.6236 0.0247
vn -0.9866 -0.0917 0.1352
vn -0.9441 0.3084 -0.1165
vn -0.8341 0.3296 -0.4424
vn -0.3299 -0.9435 -0.0310
vn -0.9811 0.0649 -0.1824
vn -0.3942 0.9178 -0.0468
vn -0.6864 -0.7244 -0.0643
vn -0.7182 0.6468 -0.2566
vn -0.4777 -0.8641 -0.1583
vn -0.2014 0.9764 -0.0782
vn -0.9296 -0.2135 -0.3005
vn -0.1693 -0.7977 -0.5788
vn -0.8668 0.1289 -0.4818
vn -0.7936 -0.4882 -0.3631
vn -0.6502 -0.6370 -0.4140
vn -0.4283 0.8329 -0.3505
vn -0.3764 -0.8569 -0.3522
vn -0.6352 -0.0664 -0.7695
vn -0.5476 0.6259 -0.5553
vn -0.4296 -0.7411 -0.5159
vn -0.5140 0.4922 -0.7025
vn -0.6545 0.3066 -0.6911
vn -0.4022 0.4923 -0.7719
vn -0.4214 0.1498 -0.8944
vn -0.4103 -0.2825 -0.8671
vn -0.2405 0.9093 -0.3396
vn -0.4672 -0.4766 -0.7446
vn -0.2223 0.6787 -0.7000
vn -0.1021 -0.3040 -0.9472
vn -0.2936 0.3890 -0.8732
vn -0.1349 -0.9324 -0.3354
vn -0.1180 0.5114 -0.8512
vn -0.1246 0.0750 -0.9894
vn -0.0500 -0.0521 -0.9974
vn -0.0842 0.7937 -0.6024
vn -0.0761 -0.5706 -0.8177
vn 0.0778 0.4902 -0.8681
vn 0.0660 -0.9570 -0.2824
vn 0.3067 -0.1405 -0.9414
vn 0.2912 0.7602 -0.5808
vn 0.3875 0.4933 -0.7788
vn 0.5662 0.4447 -0.6940
vn 0.7626 0.4810 -0.4326
vn 0.9395 -0.3276 -0.1004
vn 0.6347 0.7693 0.0725
vn 0.2791 0.9576 0.0711
vn 0.9103 -0.3273 0.2536
vn 0.6787 -0.5031 0.5351
vn 0.5981 0.3162 0.7364
vn 0.2603 0.3060 0.9158
vn 0.2783 -0.3284 0.9026
vn -0.2987 0.0842 0.9506
vn -0.3069 -0.6736 0.6724
vn -0.6146 -0.2675 0.7421
vn -0.6476 0.0504 0.7603
vn -0.8644 0.2466 0.4382
vn -0.6327 0.7699 0.0837
vn -0.9543 0.2741 0.1191
vn -0.9877 -0.1087 0.1127
vn -0.9505 0.2935 -0.1019
vn -0.8256 0.2751 -0.4927
vn -0.2117 -0.7674 -0.6052
vn -0.0970 -0.3095 -0.9459
usemtl None
s off
f 6/1/1 10/2/1 136/3/1
f 1/4/2 83/5/2 32/6/2
f 9/7/3 131/8/3 8/9/3
f 3/10/4 8/9/4 131/8/4
f 10/2/5 22/11/5 7/12/5
f 9/7/6 12/13/6 4/14/6
f 17/15/7 23/16/7 3/10/7
f 23/16/8 18/17/8 11/18/8
f 13/19/9 15/20/9 20/21/9
f 13/19/10 20/21/10 14/22/10
f 21/23/11 31/24/11 16/25/11
f 18/17/12 27/26/12 33/27/12
f 19/28/13 28/29/13 29/30/13
f 19/28/14 29/30/14 20/21/14
f 32/6/15 35/31/15 17/15/15
f 24/32/16 30/33/16 21/23/16
f 23/16/17 27/26/17 18/17/17
f 29/30/18 34/34/18 24/32/18
f 31/24/19 30/33/19 39/35/19
f 31/24/20 47/36/20 25/37/20
f 31/24/21 39/35/21 41/38/21
f 33/27/22 36/39/22 28/29/22
f 26/40/23 47/36/23 72/41/23
f 36/39/24 40/42/24 34/34/24
f 42/43/25 43/44/25 36/39/25
f 40/42/26 44/45/26 37/46/26
f 38/47/27 45/48/27 46/49/27
f 38/47/28 46/49/28 39/35/28
f 41/38/29 46/49/29 61/50/29
f 43/44/30 44/45/30 40/42/30
f 61/50/31 55/51/31 47/36/31
f 43/44/32 49/52/32 53/53/32
f 43/44/33 53/53/33 44/45/33
f 50/54/34 51/55/34 45/48/34
f 48/56/35 52/57/35 42/43/35
f 62/58/36 56/59/36 48/56/36
f 54/60/37 51/55/37 60/61/37
f 49/52/38 52/57/38 57/62/38
f 50/54/39 53/53/39 59/63/39
f 58/64/40 65/65/40 53/53/40
f 59/63/41 60/61/41 51/55/41
f 56/59/42 63/66/42 52/57/42
f 60/61/43 66/67/43 54/60/43
f 63/66/44 67/68/44 57/62/44
f 66/67/45 71/69/45 61/50/45
f 65/65/46 68/70/46 59/63/46
f 64/71/47 70/72/47 65/65/47
f 83/73/48 79/74/48 62/58/48
f 63/66/49 56/59/49 73/75/49
f 69/76/50 78/77/50 66/67/50
f 71/69/51 87/78/51 55/51/51
f 67/68/52 73/75/52 74/79/52
f 70/72/53 76/80/53 68/70/53
f 68/70/54 76/80/54 69/76/54
f 79/74/55 84/81/55 56/59/55
f 69/76/56 76/80/56 77/82/56
f 26/83/57 72/41/57 110/84/57
f 78/77/58 86/85/58 71/69/58
f 72/41/59 87/78/59 110/84/59
f 74/79/60 73/75/60 85/86/60
f 74/79/61 85/86/61 75/87/61
f 81/88/62 82/89/62 76/80/62
f 106/90/63 95/91/63 79/74/63
f 73/75/64 84/81/64 88/92/64
f 80/93/65 85/86/65 90/94/65
f 95/91/66 96/95/66 84/81/66
f 92/96/67 93/97/67 86/85/67
f 85/86/68 88/92/68 89/98/68
f 91/99/69 100/100/69 92/96/69
f 92/96/70 100/100/70 93/97/70
f 88/92/71 96/95/71 97/101/71
f 90/94/72 99/102/72 91/99/72
f 93/97/73 100/100/73 103/103/73
f 104/104/74 105/105/74 94/106/74
f 95/91/75 114/107/75 96/95/75
f 97/101/76 101/108/76 98/109/76
f 94/110/77 105/111/77 121/112/77
f 95/113/78 106/114/78 122/115/78
f 108/116/79 109/117/79 103/118/79
f 103/118/80 109/117/80 113/119/80
f 103/118/81 113/119/81 104/120/81
f 101/121/82 107/122/82 111/123/82
f 107/122/83 114/124/83 117/125/83
f 113/119/84 120/126/84 105/111/84
f 121/112/85 129/127/85 110/128/85
f 112/129/86 115/130/86 108/116/86
f 106/114/87 83/131/87 1/4/87
f 26/132/88 110/128/88 129/127/88
f 115/130/89 116/133/89 109/117/89
f 111/123/90 117/125/90 118/134/90
f 115/130/91 119/135/91 124/136/91
f 115/130/92 124/136/92 116/133/92
f 122/115/93 130/137/93 114/124/93
f 119/135/94 125/138/94 126/139/94
f 116/133/95 124/136/95 127/140/95
f 130/137/96 123/141/96 117/125/96
f 116/133/97 127/140/97 120/126/97
f 126/139/98 134/142/98 124/136/98
f 130/137/99 131/8/99 123/141/99
f 135/143/100 136/3/100 127/140/100
f 132/144/101 2/145/101 125/138/101
f 128/146/102 7/12/102 121/112/102
f 133/147/103 134/142/103 126/139/103
f 133/147/104 2/145/104 4/14/104
f 130/137/105 1/4/105 3/10/105
f 136/3/106 10/2/106 7/12/106
f 129/127/107 25/37/107 26/40/107
f 2/145/108 9/7/108 4/14/108
f 1/4/109 32/6/109 17/15/109
f 3/10/110 1/4/110 17/15/110
f 6/1/111 14/22/111 16/25/111
f 10/2/112 6/1/112 16/25/112
f 7/12/113 22/11/113 25/37/113
f 13/19/114 5/148/114 4/14/114
f 4/14/115 12/13/115 13/19/115
f 11/18/116 3/10/116 23/16/116
f 6/1/117 5/148/117 14/22/117
f 12/13/118 15/20/118 13/19/118
f 9/7/119 11/18/119 12/13/119
f 10/2/120 16/25/120 22/11/120
f 19/28/121 11/18/121 18/17/121
f 28/29/122 18/17/122 33/27/122
f 12/13/123 19/28/123 15/20/123
f 14/22/124 20/21/124 21/23/124
f 16/25/125 14/22/125 21/23/125
f 20/21/126 15/20/126 19/28/126
f 20/21/127 24/32/127 21/23/127
f 22/11/128 16/25/128 31/24/128
f 31/24/129 21/23/129 30/33/129
f 38/47/130 34/34/130 37/46/130
f 25/37/131 22/11/131 31/24/131
f 20/21/132 29/30/132 24/32/132
f 17/15/133 35/31/133 23/16/133
f 24/32/134 34/34/134 30/33/134
f 27/26/135 23/16/135 35/31/135
f 26/40/136 25/37/136 47/36/136
f 47/36/137 31/24/137 41/38/137
f 29/30/138 28/29/138 36/39/138
f 29/30/139 36/39/139 34/34/139
f 27/26/140 48/56/140 42/43/140
f 30/33/141 38/47/141 39/35/141
f 34/34/142 40/42/142 37/46/142
f 62/58/143 32/6/143 83/73/143
f 33/27/144 27/26/144 42/43/144
f 33/27/145 42/43/145 36/39/145
f 39/35/146 46/49/146 41/38/146
f 36/39/147 43/44/147 40/42/147
f 45/48/148 37/46/148 44/45/148
f 54/60/149 45/48/149 51/55/149
f 48/56/150 35/31/150 62/58/150
f 44/45/151 50/54/151 45/48/151
f 42/43/152 49/52/152 43/44/152
f 41/38/153 61/50/153 47/36/153
f 72/41/154 47/36/154 55/51/154
f 44/45/155 53/53/155 50/54/155
f 58/64/156 49/52/156 57/62/156
f 42/43/157 52/57/157 49/52/157
f 61/50/158 46/49/158 54/60/158
f 52/57/159 48/56/159 56/59/159
f 67/68/160 58/64/160 57/62/160
f 50/54/161 59/63/161 51/55/161
f 53/53/162 65/65/162 59/63/162
f 52/57/163 63/66/163 57/62/163
f 61/50/164 54/60/164 66/67/164
f 60/61/165 69/76/165 66/67/165
f 61/50/166 71/69/166 55/51/166
f 69/76/167 59/63/167 68/70/167
f 58/64/168 64/71/168 65/65/168
f 70/72/169 80/93/169 81/88/169
f 72/41/170 55/51/170 87/78/170
f 65/65/171 70/72/171 68/70/171
f 56/59/172 62/58/172 79/74/172
f 63/66/173 73/75/173 67/68/173
f 71/69/174 66/67/174 78/77/174
f 73/75/175 56/59/175 84/81/175
f 69/76/176 77/82/176 78/77/176
f 67/68/177 74/79/177 75/87/177
f 64/71/178 67/68/178 75/87/178
f 64/71/179 75/87/179 70/72/179
f 83/73/180 106/90/180 79/74/180
f 86/85/181 77/82/181 82/89/181
f 76/80/182 70/72/182 81/88/182
f 87/78/183 71/69/183 86/85/183
f 82/89/184 91/99/184 92/96/184
f 80/93/185 75/87/185 85/86/185
f 77/82/186 76/80/186 82/89/186
f 90/94/187 81/88/187 80/93/187
f 79/74/188 95/91/188 84/81/188
f 82/89/189 92/96/189 86/85/189
f 85/86/190 73/75/190 88/92/190
f 98/109/191 90/94/191 89/98/191
f 86/85/192 93/97/192 94/106/192
f 87/78/193 86/85/193 94/106/193
f 90/94/194 85/86/194 89/98/194
f 87/78/195 94/106/195 110/84/195
f 88/92/196 84/81/196 96/95/196
f 89/98/197 88/92/197 97/101/197
f 93/97/198 104/104/198 94/106/198
f 89/98/199 97/101/199 98/109/199
f 107/149/200 96/95/200 114/107/200
f 91/99/201 99/102/201 100/100/201
f 93/97/202 103/103/202 104/104/202
f 100/100/203 108/150/203 103/103/203
f 102/151/204 98/109/204 101/108/204
f 97/101/205 107/149/205 101/108/205
f 102/151/206 100/100/206 99/102/206
f 112/129/207 101/121/207 111/123/207
f 118/134/208 112/129/208 111/123/208
f 94/110/209 121/112/209 110/128/209
f 102/152/210 112/129/210 108/116/210
f 95/113/211 122/115/211 114/124/211
f 104/120/212 113/119/212 105/111/212
f 107/122/213 117/125/213 111/123/213
f 121/112/214 105/111/214 120/126/214
f 106/114/215 1/4/215 122/115/215
f 108/116/216 115/130/216 109/117/216
f 128/146/217 136/3/217 7/12/217
f 112/129/218 119/135/218 115/130/218
f 113/119/219 109/117/219 116/133/219
f 113/119/220 116/133/220 120/126/220
f 114/124/221 130/137/221 117/125/221
f 120/126/222 128/146/222 121/112/222
f 119/135/223 126/139/223 124/136/223
f 118/134/224 117/125/224 123/141/224
f 128/146/225 120/126/225 127/140/225
f 118/134/226 123/141/226 125/138/226
f 119/135/227 118/134/227 125/138/227
f 123/141/228 132/144/228 125/138/228
f 125/138/229 133/147/229 126/139/229
f 124/136/230 134/142/230 135/143/230
f 130/137/231 122/115/231 1/4/231
f 127/140/232 124/136/232 135/143/232
f 132/144/233 123/141/233 131/8/233
f 135/143/234 5/148/234 6/1/234
f 133/147/235 125/138/235 2/145/235
f 129/127/236 121/112/236 7/12/236
f 2/145/237 132/144/237 131/8/237
f 134/142/238 133/147/238 4/14/238
f 134/142/239 4/14/239 5/148/239
f 131/8/240 130/137/240 3/10/240
f 135/143/241 6/1/241 136/3/241
f 9/7/242 2/145/242 131/8/242
f 129/127/243 7/12/243 25/37/243
f 13/19/244 14/22/244 5/148/244
f 11/18/245 8/9/245 3/10/245
f 9/7/246 8/9/246 11/18/246
f 19/28/247 12/13/247 11/18/247
f 28/29/248 19/28/248 18/17/248
f 38/47/249 30/33/249 34/34/249
f 27/26/250 35/31/250 48/56/250
f 62/58/251 35/31/251 32/6/251
f 45/48/252 38/47/252 37/46/252
f 54/60/253 46/49/253 45/48/253
f 58/64/254 53/53/254 49/52/254
f 67/68/255 64/71/255 58/64/255
f 69/76/256 60/61/256 59/63/256
f 70/72/257 75/87/257 80/93/257
f 86/85/258 78/77/258 77/82/258
f 82/89/259 81/88/259 91/99/259
f 90/94/260 91/99/260 81/88/260
f 98/109/261 99/102/261 90/94/261
f 107/149/262 97/101/262 96/95/262
f 102/151/263 99/102/263 98/109/263
f 102/151/264 108/150/264 100/100/264
f 112/129/265 102/152/265 101/121/265
f 118/134/266 119/135/266 112/129/266
f 128/146/267 127/140/267 136/3/267
f 135/143/268 134/142/268 5/148/268
